<svg width="261" height="260" viewBox="0 0 261 260" fill="none" xmlns="http://www.w3.org/2000/svg">
<path d="M130.032 248.986C64.411 248.986 11.0225 195.61 11.0225 130.003C11.0225 64.3962 64.411 11.0195 130.032 11.0195C195.654 11.0195 249.042 64.3962 249.042 130.003C249.042 195.61 195.654 248.986 130.032 248.986ZM130.032 16.1166C67.2165 16.1166 16.1064 67.2152 16.1064 130.017C16.1064 192.819 67.2165 243.918 130.032 243.918C192.848 243.918 243.958 192.819 243.958 130.017C243.958 67.2152 192.848 16.1166 130.032 16.1166Z" fill="#119595"/>
<path d="M135.558 124.536H126.5C125.981 124.536 125.561 124.957 125.561 125.476V134.531C125.561 135.05 125.981 135.471 126.5 135.471H135.558C136.077 135.471 136.497 135.05 136.497 134.531V125.476C136.497 124.957 136.077 124.536 135.558 124.536Z" fill="#119595"/>
<path d="M174.492 168.103H178.066C178.593 168.103 179.006 167.676 179.006 167.164V83.1194C179.006 82.5926 178.579 82.1797 178.066 82.1797H93.8891C93.3622 82.1797 92.9492 82.6068 92.9492 83.1194V85.7533C92.9492 86.2801 93.3764 86.693 93.8891 86.693H173.552C174.079 86.693 174.492 87.1201 174.492 87.6327V162.636C174.492 163.163 174.065 163.576 173.552 163.576H98.4034C97.8765 163.576 97.4635 163.149 97.4635 162.636V97.3854C97.4635 96.8586 97.8907 96.4457 98.4034 96.4457H163.669C164.196 96.4457 164.609 96.8729 164.609 97.3854V152.627C164.609 153.154 164.181 153.567 163.669 153.567H159.112H154.597H108.429C107.902 153.567 107.489 153.14 107.489 152.627V107.409C107.489 106.882 107.916 106.469 108.429 106.469H153.658C154.184 106.469 154.597 106.896 154.597 107.409V142.874C154.597 143.401 154.17 143.814 153.658 143.814H139.047V143.786H118.212C117.685 143.786 117.272 143.359 117.272 142.846V117.176C117.272 116.649 117.7 116.236 118.212 116.236H143.888C144.415 116.236 144.828 116.663 144.828 117.176V134.859C144.828 135.385 145.255 135.798 145.768 135.798H148.403C148.93 135.798 149.343 135.371 149.343 134.859V112.662C149.343 112.136 148.915 111.723 148.403 111.723H113.698C113.171 111.723 112.758 112.15 112.758 112.662V147.359C112.758 147.886 113.185 148.299 113.698 148.299H159.126V102.881C159.126 102.354 158.699 101.941 158.186 101.941H103.929C103.402 101.941 102.989 102.369 102.989 102.881V157.126C102.989 157.653 103.416 158.066 103.929 158.066H164.637H168.212C168.738 158.066 169.151 157.639 169.151 157.126V92.8579C169.151 92.3311 168.724 91.9182 168.212 91.9182H93.9176C93.3907 91.9182 92.9777 92.3453 92.9777 92.8579V167.135C92.9777 167.662 93.4049 168.075 93.9176 168.075H174.534L174.492 168.103Z" fill="#119595"/>
<path d="M171.231 173.414H88.7057C88.1788 173.414 87.7658 172.987 87.7658 172.474V83.1194C87.7658 82.5926 87.3386 82.1797 86.8259 82.1797H84.1914C83.6645 82.1797 83.2515 82.6068 83.2515 83.1194V176.973C83.2515 177.5 83.6787 177.913 84.1914 177.913H178.081C178.608 177.913 179.021 177.486 179.021 176.973V174.354C179.021 173.827 178.593 173.414 178.081 173.414H171.245H171.231Z" fill="#119595"/>
<path d="M119.893 184.249C119.352 184.249 118.896 184.705 118.939 185.246C119.437 191.083 124.336 195.668 130.303 195.668C136.27 195.668 141.169 191.083 141.667 185.246C141.71 184.705 141.254 184.249 140.713 184.249H119.864H119.893Z" fill="#119595"/>
<path d="M141.553 78.1646C142.094 78.1646 142.55 77.709 142.507 77.168C142.009 71.3306 137.11 66.7461 131.143 66.7461C125.176 66.7461 120.278 71.3306 119.779 77.168C119.736 77.709 120.192 78.1646 120.733 78.1646H141.582H141.553Z" fill="#119595"/>
<path d="M77.9396 119.625C77.9396 119.084 77.4839 118.628 76.9428 118.671C71.1041 119.169 66.5186 124.067 66.5186 130.032C66.5186 135.998 71.1041 140.896 76.9428 141.394C77.4839 141.437 77.9396 140.981 77.9396 140.44V119.596V119.625Z" fill="#119595"/>
<path d="M184.176 141.323C184.176 141.864 184.631 142.319 185.173 142.277C191.011 141.778 195.597 136.881 195.597 130.915C195.597 124.95 191.011 120.052 185.173 119.554C184.631 119.511 184.176 119.966 184.176 120.507V141.351V141.323Z" fill="#119595"/>
<path d="M71.2465 103.536C67.0597 104.547 52.7905 109.188 52.1069 125.633C52.0785 126.259 52.6766 126.743 53.2747 126.587C57.6181 125.49 72.3288 120.607 72.4 104.461C72.4 103.849 71.8304 103.394 71.2323 103.536H71.2465Z" fill="#119595"/>
<path d="M71.2465 158.194C67.0597 157.183 52.7905 152.541 52.1069 136.097C52.0785 135.47 52.6766 134.986 53.2747 135.143C57.6181 136.239 72.3288 141.123 72.4 157.268C72.4 157.88 71.8304 158.336 71.2323 158.194H71.2465Z" fill="#119595"/>
<path d="M190.855 103.536C195.041 104.547 209.311 109.188 209.994 125.633C210.023 126.259 209.425 126.743 208.827 126.587C204.483 125.49 189.772 120.607 189.701 104.461C189.701 103.849 190.271 103.394 190.869 103.536H190.855Z" fill="#119595"/>
<path d="M190.855 158.194C195.041 157.183 209.311 152.541 209.994 136.097C210.023 135.47 209.425 134.986 208.827 135.143C204.483 136.239 189.772 141.123 189.701 157.268C189.701 157.88 190.271 158.336 190.869 158.194H190.855Z" fill="#119595"/>
<path d="M213.028 105.017C212.899 104.832 212.757 104.661 212.629 104.476C211.732 103.322 210.778 102.212 209.752 101.158C204.312 95.5915 197.363 92.7724 189.901 91.0639C189.431 90.95 188.562 90.95 188.149 90.6937C187.779 90.4659 187.878 90.1385 187.836 89.6686C187.75 88.7717 187.636 87.8889 187.466 87.0062C186.227 80.5708 182.467 74.8758 176.942 71.3164C172.555 68.4974 167.329 67.5577 163.954 63.2437C161.761 60.4389 160.778 56.9222 158.742 54.0177C156.506 50.8428 153.444 48.1661 150.283 45.9593C144.458 41.9016 137.466 39.4385 130.346 39.4385C123.225 39.4385 116.233 41.9016 110.409 45.9593C107.247 48.1661 104.186 50.8428 101.95 54.0177C99.9134 56.9222 98.9307 60.4389 96.7377 63.2437C93.3626 67.5577 88.1363 68.4974 83.7501 71.3164C78.2247 74.8758 74.4652 80.5708 73.2262 87.0062C73.0553 87.8889 72.9271 88.7717 72.8559 89.6686C72.8132 90.1385 72.8987 90.4659 72.5426 90.6937C72.1439 90.95 71.2752 90.95 70.791 91.0639C63.3146 92.7724 56.3652 95.5915 50.9394 101.158C49.9141 102.212 48.96 103.308 48.0628 104.476C47.9204 104.647 47.7922 104.832 47.664 105.017C38.6354 117.19 37.012 132.979 43.1782 146.747C45.8412 152.698 49.8287 158.094 54.9553 162.138C57.4617 164.117 60.2244 165.768 63.158 167.007C63.8131 167.292 69.9936 169.029 72.0869 169.47C72.4999 169.556 72.799 169.912 72.8274 170.339C73.4683 178.283 78.2817 185.801 85.2739 189.645C88.5493 191.453 92.2803 192.535 95.0288 195.069C97.5779 197.419 98.9593 200.736 100.739 203.712C106.82 213.92 118.469 220.555 130.36 220.597C130.36 220.597 130.389 220.597 130.403 220.597C130.417 220.597 130.431 220.597 130.446 220.597C142.322 220.555 153.971 213.92 160.066 203.712C161.846 200.736 163.228 197.419 165.777 195.069C168.525 192.535 172.271 191.453 175.532 189.645C182.524 185.786 187.337 178.283 187.978 170.339C188.007 169.912 188.306 169.556 188.719 169.47C190.812 169.029 196.978 167.278 197.648 167.007C200.581 165.768 203.344 164.117 205.85 162.138C210.977 158.08 214.964 152.698 217.627 146.747C223.779 132.979 222.156 117.19 213.142 105.017H213.028ZM208.172 153.795C202.304 160.486 193.717 164.715 184.831 165.356C184.048 165.413 183.407 166.053 183.464 166.836C183.962 173.77 180.573 180.903 174.805 184.818C170.932 187.438 166.161 188.691 162.687 191.837C159.482 194.742 157.802 198.928 155.395 202.53C149.913 210.773 140.2 216.056 130.289 216.184C120.377 216.056 110.679 210.773 105.182 202.53C102.79 198.928 101.095 194.756 97.8912 191.837C94.4307 188.691 89.6458 187.452 85.7723 184.818C80.0048 180.903 76.6155 173.77 77.1139 166.836C77.1709 166.053 76.5301 165.413 75.7468 165.356C66.8748 164.715 58.2877 160.486 52.4062 153.795C33.9502 132.766 47.3935 95.9189 75.9747 94.9365C76.6297 94.9081 77.1567 94.3955 77.1567 93.7406V90.7222C77.1567 89.5263 77.3987 88.2733 77.6551 87.1201C78.481 83.3187 80.4178 79.8589 83.3086 77.2392C85.7723 75.0039 88.8911 73.4663 91.8816 72.0568C94.1459 70.9889 96.2108 69.6933 98.0336 68.0418C98.6175 67.515 99.1729 66.9455 99.6998 66.3333C101.978 63.6993 103.146 60.4958 105.04 57.6341C106.735 55.0856 108.842 52.8218 111.235 50.914C113.841 48.821 116.76 47.1268 119.879 45.9308C123.197 44.6637 126.729 43.9803 130.289 43.9803C133.849 43.9803 137.381 44.6637 140.699 45.9308C143.818 47.1268 146.737 48.8353 149.343 50.914C151.735 52.8218 153.843 55.0856 155.538 57.6341C157.432 60.4958 158.6 63.7135 160.878 66.3333C161.405 66.9455 161.96 67.515 162.544 68.0418C164.367 69.6933 166.432 70.9889 168.696 72.0568C171.687 73.4663 174.805 75.0039 177.269 77.2392C180.16 79.8589 182.083 83.3187 182.923 87.1201C183.179 88.2876 183.421 89.5263 183.421 90.7222V93.7406C183.421 94.3955 183.948 94.9081 184.603 94.9365C213.17 95.9189 226.628 132.766 208.172 153.795Z" fill="#119595"/>
<path d="M193.332 94.21L191.467 92.3449C191.111 91.989 191.111 91.4195 191.467 91.035C199.285 82.5352 199.086 69.2516 190.84 61.008C182.595 52.7645 169.308 52.5509 160.807 60.3816C160.436 60.7233 159.867 60.7233 159.496 60.3816L157.631 58.5164C157.261 58.1463 157.261 57.5056 157.645 57.1496C167.913 47.6105 184.033 47.8383 194.016 57.833C204.013 67.8278 204.227 83.9305 194.7 94.1958C194.344 94.5802 193.703 94.5944 193.332 94.21Z" fill="#119595"/>
<path d="M102.206 58.5168L100.341 60.382C99.9846 60.7379 99.415 60.7379 99.0305 60.382C90.5288 52.5655 77.2422 52.7649 68.9968 61.0084C60.7514 69.252 60.5378 82.5356 68.3702 91.0354C68.7119 91.4056 68.7119 91.9751 68.3702 92.3453L66.5046 94.2104C66.1344 94.5806 65.4935 94.5806 65.1375 94.1962C55.5962 83.9309 55.8241 67.814 65.8211 57.8334C75.8181 47.8387 91.9244 47.6251 102.192 57.15C102.576 57.506 102.591 58.1467 102.206 58.5168Z" fill="#119595"/>
<path d="M193.731 165.812L191.866 167.677C191.51 168.033 191.51 168.602 191.866 168.987C199.684 177.486 199.485 190.77 191.239 199.014C182.994 207.257 169.707 207.471 161.206 199.64C160.835 199.298 160.266 199.298 159.895 199.64L158.03 201.505C157.66 201.875 157.66 202.516 158.044 202.872C168.312 212.411 184.432 212.183 194.415 202.189C204.412 192.194 204.626 176.091 195.099 165.826C194.743 165.441 194.102 165.427 193.731 165.812Z" fill="#119595"/>
<path d="M102.59 201.491L100.725 199.626C100.369 199.27 99.7993 199.27 99.4148 199.626C90.913 207.442 77.6264 207.243 69.381 198.999C61.1356 190.756 60.922 177.472 68.7544 168.972C69.0962 168.602 69.0962 168.033 68.7544 167.662L66.8889 165.797C66.5186 165.427 65.8778 165.427 65.5218 165.812C55.9805 176.077 56.2083 192.194 66.2053 202.174C76.2023 212.169 92.3086 212.383 102.576 202.858C102.961 202.502 102.975 201.861 102.59 201.491Z" fill="#119595"/>
<path d="M104.598 70.2486C105.61 66.0627 110.252 51.7967 126.7 51.1133C127.327 51.0848 127.811 51.6828 127.654 52.2808C126.558 56.6232 121.673 71.3306 105.524 71.4018C104.912 71.4018 104.456 70.8323 104.598 70.2343V70.2486Z" fill="#119595"/>
<path d="M157.318 70.2486C156.307 66.0627 151.664 51.7967 135.216 51.1133C134.59 51.0848 134.105 51.6828 134.262 52.2808C135.359 56.6232 140.243 71.3306 156.392 71.4018C157.005 71.4018 157.46 70.8323 157.318 70.2343V70.2486Z" fill="#119595"/>
<path d="M102.904 189.773C103.915 193.959 108.557 208.225 125.005 208.909C125.632 208.937 126.116 208.339 125.959 207.741C124.863 203.399 119.978 188.691 103.829 188.62C103.217 188.62 102.761 189.19 102.904 189.788V189.773Z" fill="#119595"/>
<path d="M157.716 189.773C156.705 193.959 152.063 208.225 135.615 208.909C134.988 208.937 134.504 208.339 134.661 207.741C135.757 203.399 140.642 188.691 156.791 188.62C157.403 188.62 157.859 189.19 157.716 189.788V189.773Z" fill="#119595"/>
<path d="M53.5739 166.111C49.0738 163.007 38.1084 154.023 35.9866 138.703C35.8726 137.877 34.6764 137.821 34.4913 138.646C33.352 143.857 32.1985 152.784 35.6305 159.405C39.504 166.879 48.789 167.606 53.1609 167.506C53.9014 167.492 54.1863 166.538 53.5739 166.125V166.111Z" fill="#119595"/>
<path d="M204.811 169.014C209.581 166.338 221.316 158.365 224.819 143.301C225.004 142.49 226.2 142.547 226.314 143.387C226.984 148.683 227.311 157.667 223.295 163.96C218.767 171.05 209.453 170.937 205.11 170.438C204.384 170.353 204.184 169.385 204.825 169.029L204.811 169.014Z" fill="#119595"/>
<path d="M204.811 90.9924C209.581 93.669 221.316 101.642 224.819 116.705C225.004 117.517 226.2 117.46 226.314 116.62C226.984 111.324 227.311 102.34 223.295 96.0467C218.767 88.9564 209.453 89.0703 205.11 89.5686C204.384 89.654 204.184 90.6222 204.825 90.9781L204.811 90.9924Z" fill="#119595"/>
<path d="M98.7456 49.8604C102.064 45.5179 111.577 34.9963 126.985 33.6153C127.825 33.5441 127.925 32.3481 127.113 32.1346C121.958 30.7393 113.1 29.1732 106.322 32.277C98.6744 35.7794 97.5067 45.0196 97.3927 49.3905C97.3785 50.1309 98.3041 50.4583 98.7598 49.8746L98.7456 49.8604Z" fill="#119595"/>
<path d="M163.171 49.8604C159.852 45.5179 150.34 34.9963 134.931 33.6153C134.091 33.5441 133.991 32.3481 134.803 32.1346C139.958 30.7393 148.816 29.1732 155.594 32.277C163.242 35.7794 164.409 45.0196 164.523 49.3905C164.538 50.1309 163.612 50.4583 163.156 49.8746L163.171 49.8604Z" fill="#119595"/>
<path d="M98.9165 210.147C102.235 214.489 111.747 225.011 127.156 226.392C127.996 226.463 128.096 227.659 127.284 227.873C122.129 229.268 113.271 230.834 106.493 227.73C98.8453 224.228 97.6776 214.987 97.5636 210.617C97.5494 209.876 98.475 209.549 98.9307 210.132L98.9165 210.147Z" fill="#119595"/>
<path d="M163.327 210.147C160.009 214.489 150.496 225.011 135.088 226.392C134.248 226.463 134.148 227.659 134.96 227.873C140.115 229.268 148.973 230.834 155.751 227.73C163.398 224.228 164.566 214.987 164.68 210.617C164.694 209.876 163.769 209.549 163.313 210.132L163.327 210.147Z" fill="#119595"/>
<path d="M53.5739 94.1679C49.0738 97.2717 38.1084 106.256 35.9866 121.575C35.8726 122.401 34.6764 122.458 34.4913 121.632C33.352 116.421 32.1985 107.494 35.6305 100.874C39.504 93.3991 48.789 92.673 53.1609 92.7727C53.9014 92.7869 54.1863 93.7408 53.5739 94.1537V94.1679Z" fill="#119595"/>
</svg>
